<svg xmlns="http://www.w3.org/2000/svg" version="1.1" xmlns:xlink="http://www.w3.org/1999/xlink" xmlns:svgjs="http://svgjs.dev/svgjs" viewBox="0 0 800 800" opacity="1"><defs><linearGradient x1="50%" y1="0%" x2="50%" y2="100%" id="uundulate-grad"><stop stop-color="#74B561" stop-opacity="1" offset="45%"></stop><stop stop-color="#ED7C14" stop-opacity="1" offset="100%"></stop></linearGradient></defs><g stroke-width="11" stroke="url(#uundulate-grad)" fill="none"><path d="M1217.469935735178 -45.85290617817657C1261.7285994670458 300.28327273373 1110.7115643093432 1168.1832722915078 768.9583124139062 1238.7084343683118C427.20506051846905 1309.2335964451158 -378.68700963105323 638.8040507023886 -422.94567336292096 292.66787179048197C-467.20433709478874 -53.468307121424914 214.76347460550596 -352.22006233203433 556.5167265009432 -422.74522440883845C898.2699783963803 -493.2703864856426 1173.21127200331 -391.98908509008334 1217.469935735178 -45.85290617817657C1261.7285994670458 300.28327273373 1110.7115643093432 1168.1832722915078 768.9583124139062 1238.7084343683118 "></path><path d="M1143.1544842576545 -5.320798829414798C1183.389633104807 309.348454726864 1046.1014193250778 1098.3484543248437 735.4166448746803 1162.4622380310293C424.731870424283 1226.576021737215 -307.8972842571009 617.0946165165537 -348.13243310425344 302.4253629602749C-388.36758195140595 -12.243890596004121 231.60315595795294 -283.8363953329218 542.2879304083503 -347.9501790391074C852.9727048587476 -412.06396274529294 1102.919335410502 -319.9900523856937 1143.1544842576545 -5.320798829414798C1183.389633104807 309.348454726864 1046.1014193250778 1098.3484543248437 735.4166448746803 1162.4622380310293 "></path><path d="M1068.8390327801312 35.21127800176896C1105.0506667425684 318.41360620241994 981.4912743408122 1028.5136058406015 701.8749773354543 1086.2160111761684C422.2586803300969 1143.9184165117354 -237.10755888314867 595.3851518131405 -273.3191928455859 312.1828236124895C-309.53082680802316 28.980495411838547 248.4428373103998 -215.45275885138744 528.0591343157575 -273.15516418695444C807.6754313211152 -330.8575695225215 1032.627398817694 -247.99105019888214 1068.8390327801312 35.21127800176896C1105.0506667425684 318.41360620241994 981.4912743408122 1028.5136058406015 701.8749773354543 1086.2160111761684 "></path><path d="M994.523611820186 75.74338535053062C1026.7117308979082 327.4787881955539 916.8811598741247 958.6787878739374 668.3333403138067 1009.9698148388859C419.78552075348887 1061.2608418038344 -166.31780299161824 573.6757176273054 -198.50592206934027 321.94031478228237C-230.69404114706225 70.20491193725923 265.2825491804249 -147.06909185227494 513.8303687407429 -198.3601188172234C762.3781883010606 -249.65114578217185 962.3354927424641 -175.99201749449242 994.523611820186 75.74338535053062C1026.7117308979082 327.4787881955539 916.8811598741247 958.6787878739374 668.3333403138067 1009.9698148388859 "></path><path d="M920.2081908602411 116.27546218171437C948.3727950532477 336.54393967110957 852.2710454074372 888.8439393896952 634.7917032921591 933.7235879840252C417.3123611768809 978.6032365783551 -95.52804710008786 551.9662529238922 -123.69265129309457 331.697775434497C-151.85725548610134 111.42929794510178 282.1222610504499 -78.68545537074061 499.60160316572797 -123.56510396507048C717.0809452810063 -168.4447525594004 892.0435866672342 -103.99301530768088 920.2081908602411 116.27546218171437C948.3727950532477 336.54393967110957 852.2710454074372 888.8439393896952 634.7917032921591 933.7235879840252 "></path><path d="M845.8926783475615 156.8075084953199C870.0337676558529 345.60906062908725 787.6608393880153 819.0090603878748 601.249974717777 857.4773306115862C414.8391100475385 895.9456008352977 -24.738382761291803 530.2567577029009 -48.8794720695833 341.45520556913357C-73.0205613778748 152.65365343536632 298.9618813677405 -10.301849406784356 485.3727460379789 -48.770119630495685C671.7836107082173 -87.23838985420701 821.7515890392699 -31.994043638447465 845.8926783475615 156.8075084953199C870.0337676558529 345.60906062908725 787.6608393880153 819.0090603878748 601.249974717777 857.4773306115862 "></path><path d="M771.5772268700382 197.33958532650354C791.6948012936145 354.67421210464295 723.0506944037497 749.1742119036328 567.7083071785511 781.2311037567256C412.36591995335243 813.2879956098184 46.05134261266045 508.5472929994878 25.93376818908422 351.2126662213484C5.81619376550799 193.87803944320888 315.80156272018735 58.081787074750025 471.1439499453861 26.024895221657232C626.4863371705848 -6.031996631435561 751.4596524464619 40.00495854836407 771.5772268700382 197.33958532650354C791.6948012936145 354.67421210464295 723.0506944037497 749.1742119036328 567.7083071785511 781.2311037567256 "></path><path d="M697.261805910093 237.87166215768718C713.3558654489541 363.73936358019887 658.4405799370624 679.3393634193906 534.1666701569034 704.9848769018648C409.8927603767445 730.6303903843391 116.84109850419088 486.8378282960746 100.74703896532986 360.970126873563C84.65297942646885 235.1024254510515 332.64127459021245 126.4654235562844 456.91518437037143 100.81991007381015C581.1890941505303 75.17439659133595 681.167746371232 112.00396073517567 697.261805910093 237.87166215768718C713.3558654489541 363.73936358019887 658.4405799370624 679.3393634193906 534.1666701569034 704.9848769018648 "></path><path d="M622.9463391737808 278.4037847652381C635.0168838279264 372.80456083212175 593.8304196940077 609.5045607115155 500.6249873588886 628.7386958233712C407.41955502376925 647.972830935227 187.63080861935407 465.12840936902853 175.56026396520832 370.7276333021449C163.48971931106257 276.3268572352613 349.48094068387024 194.84910581418598 442.68637301898946 175.6149707023303C535.8918053541087 156.3808355904746 610.875794519635 184.0030086983544 622.9463391737808 278.4037847652381C635.0168838279264 372.80456083212175 593.8304196940077 609.5045607115155 500.6249873588886 628.7386958233712 "></path><path d="M548.6309029550465 318.9358615964217C556.677932724477 381.86971230767756 529.2202899685312 539.6697122272734 467.0833350784517 552.4924689685106C404.94638018837225 565.3152257097477 258.42054925209544 443.4189446656154 250.37351948266496 380.4850939543596C242.32648971323442 317.55124324310384 366.3206372951062 263.2327422957203 428.4575921851857 250.40998555448323C490.59454707526515 237.5872288132461 540.5838731856161 256.00201088516593 548.6309029550465 318.9358615964217C556.677932724477 381.86971230767756 529.2202899685312 539.6697122272734 467.0833350784517 552.4924689685106 "></path><path d="M474.3154362187342 359.4679079100273C478.33895110344946 390.9348332656552 464.61012972547655 469.83483322545317 433.5416522804368 476.2462115960717C402.47317483539706 482.65758996669024 329.21025936725863 421.7094494446241 325.1867444825434 390.2425240889962C321.16322959782815 358.7755987333683 383.160303388764 331.61634825967656 414.2287808338038 325.204969889058C445.2972582788435 318.7935915184394 470.291921334019 328.0009825543994 474.3154362187342 359.4679079100273C478.33895110344946 390.9348332656552 464.61012972547655 469.83483322545317 433.5416522804368 476.2462115960717 "></path></g></svg>