<?xml version="1.0" standalone="no"?><svg xmlns:xlink="http://www.w3.org/1999/xlink" xmlns="http://www.w3.org/2000/svg" viewBox="0 0 2000 1142.857142857143" preserveAspectRatio="xMaxYMax slice"><g transform="scale(1.7006802721088434)"><rect x="0" y="0" width="1176" height="672" fill="#161A1D"/><circle cx="84" cy="84" r="84" fill="#99B88E"/><circle cx="252" cy="84" r="84" fill="#99B88E"/><circle cx="420" cy="84" r="84" fill="#99B88E"/><g transform="translate(504,0) scale(8.4) rotate(0)"><path fill-rule="evenodd" clip-rule="evenodd" d="M10 20C15.5228 20 20 15.5228 20 10C20 4.47715 15.5228 0 10 0C4.47715 0 0 4.47715 0 10C0 15.5228 4.47715 20 10 20ZM10 17C13.866 17 17 13.866 17 10C17 6.13401 13.866 3 10 3C6.13401 3 3 6.13401 3 10C3 13.866 6.13401 17 10 17Z" fill="#99B88E"/></g><circle cx="756" cy="84" r="84" fill="#99B88E"/><path d="M 840 0 A 168 168 0 0 1  1008 168 L 840 0 A 168 168 0 0 0 1008 168" fill="#99B88E"/><circle cx="1092" cy="84" r="84" fill="#F58514"/><circle cx="84" cy="252" r="84" fill="#F58514"/><g transform="translate(168,168) scale(8.4) rotate(0)"><path fill-rule="evenodd" clip-rule="evenodd" d="M10 20C15.5228 20 20 15.5228 20 10C20 4.47715 15.5228 0 10 0C4.47715 0 0 4.47715 0 10C0 15.5228 4.47715 20 10 20ZM10 17C13.866 17 17 13.866 17 10C17 6.13401 13.866 3 10 3C6.13401 3 3 6.13401 3 10C3 13.866 6.13401 17 10 17Z" fill="#99B88E"/></g><circle cx="420" cy="252" r="84" fill="#99B88E"/><g transform="translate(504,168) scale(8.4) rotate(0)"><path fill-rule="evenodd" clip-rule="evenodd" d="M10 20C15.5228 20 20 15.5228 20 10C20 4.47715 15.5228 0 10 0C4.47715 0 0 4.47715 0 10C0 15.5228 4.47715 20 10 20ZM10 17C13.866 17 17 13.866 17 10C17 6.13401 13.866 3 10 3C6.13401 3 3 6.13401 3 10C3 13.866 6.13401 17 10 17Z" fill="#F58514"/></g><circle cx="756" cy="252" r="84" fill="#99B88E"/><path d="M 840 336 A 168 168 0 0 1  1008 168 L 840 336 A 168 168 0 0 0 1008 168" fill="#99B88E"/><circle cx="1092" cy="252" r="84" fill="#F58514"/><circle cx="84" cy="420" r="84" fill="#99B88E"/><g transform="translate(168,336) scale(8.4) rotate(0)"><path fill-rule="evenodd" clip-rule="evenodd" d="M10 20C15.5228 20 20 15.5228 20 10C20 4.47715 15.5228 0 10 0C4.47715 0 0 4.47715 0 10C0 15.5228 4.47715 20 10 20ZM10 17C13.866 17 17 13.866 17 10C17 6.13401 13.866 3 10 3C6.13401 3 3 6.13401 3 10C3 13.866 6.13401 17 10 17Z" fill="#99B88E"/></g><g transform="translate(336,336) scale(8.4) rotate(0)"><path fill-rule="evenodd" clip-rule="evenodd" d="M10 20C15.5228 20 20 15.5228 20 10C20 4.47715 15.5228 0 10 0C4.47715 0 0 4.47715 0 10C0 15.5228 4.47715 20 10 20ZM10 17C13.866 17 17 13.866 17 10C17 6.13401 13.866 3 10 3C6.13401 3 3 6.13401 3 10C3 13.866 6.13401 17 10 17Z" fill="#99B88E"/></g><path d="M 504 504 A 168 168 0 0 1  672 336 L 504 504 A 168 168 0 0 0 672 336" fill="#99B88E"/><g transform="translate(672,336) scale(8.4) rotate(0)"><path fill-rule="evenodd" clip-rule="evenodd" d="M10 20C15.5228 20 20 15.5228 20 10C20 4.47715 15.5228 0 10 0C4.47715 0 0 4.47715 0 10C0 15.5228 4.47715 20 10 20ZM10 17C13.866 17 17 13.866 17 10C17 6.13401 13.866 3 10 3C6.13401 3 3 6.13401 3 10C3 13.866 6.13401 17 10 17Z" fill="#99B88E"/></g><circle cx="924" cy="420" r="84" fill="#99B88E"/><path d="M 1008 336 A 168 168 0 0 1  1176 504 L 1008 336 A 168 168 0 0 0 1176 504" fill="#99B88E"/><path d="M 0 504 A 168 168 0 0 1  168 672 L 0 504 A 168 168 0 0 0 168 672" fill="#F58514"/><path d="M 168 504 A 168 168 0 0 1  336 672 L 168 504 A 168 168 0 0 0 336 672" fill="#F58514"/><path d="M 336 504 A 168 168 0 0 1  504 672 L 336 504 A 168 168 0 0 0 504 672" fill="#99B88E"/><g transform="translate(504,504) scale(8.4) rotate(0)"><path fill-rule="evenodd" clip-rule="evenodd" d="M10 20C15.5228 20 20 15.5228 20 10C20 4.47715 15.5228 0 10 0C4.47715 0 0 4.47715 0 10C0 15.5228 4.47715 20 10 20ZM10 17C13.866 17 17 13.866 17 10C17 6.13401 13.866 3 10 3C6.13401 3 3 6.13401 3 10C3 13.866 6.13401 17 10 17Z" fill="#99B88E"/></g><circle cx="756" cy="588" r="84" fill="#99B88E"/><circle cx="924" cy="588" r="84" fill="#99B88E"/><path d="M 1008 672 A 168 168 0 0 1  1176 504 L 1008 672 A 168 168 0 0 0 1176 504" fill="#99B88E"/></g></svg>