<?xml version="1.0" standalone="no"?><svg xmlns:xlink="http://www.w3.org/1999/xlink" xmlns="http://www.w3.org/2000/svg" viewBox="0 0 2000 1333.3333333333335" preserveAspectRatio="xMaxYMax slice"><g transform="scale(1.9841269841269842)"><rect x="0" y="0" width="1008" height="672" fill="#161A1D"/><rect x="0" y="0" width="336" height="336" fill="#161A1D"/><circle cx="84" cy="84" r="84" fill="#161A1D"/><circle cx="252" cy="84" r="84" fill="#161A1D"/><path d="M 0 336 A 168 168 0 0 1  168 168 L 0 336 A 168 168 0 0 0 168 168" fill="#99B88E"/><circle cx="252" cy="252" r="84" fill="#161A1D"/><rect x="336" y="0" width="336" height="336" fill="#161A1D"/><g transform="translate(336,0) scale(8.4) rotate(0)"><path fill-rule="evenodd" clip-rule="evenodd" d="M10 20C15.5228 20 20 15.5228 20 10C20 4.47715 15.5228 0 10 0C4.47715 0 0 4.47715 0 10C0 15.5228 4.47715 20 10 20ZM10 17C13.866 17 17 13.866 17 10C17 6.13401 13.866 3 10 3C6.13401 3 3 6.13401 3 10C3 13.866 6.13401 17 10 17Z" fill="#161A1D"/></g><g transform="translate(504,0) scale(8.4) rotate(0)"><path fill-rule="evenodd" clip-rule="evenodd" d="M10 20C15.5228 20 20 15.5228 20 10C20 4.47715 15.5228 0 10 0C4.47715 0 0 4.47715 0 10C0 15.5228 4.47715 20 10 20ZM10 17C13.866 17 17 13.866 17 10C17 6.13401 13.866 3 10 3C6.13401 3 3 6.13401 3 10C3 13.866 6.13401 17 10 17Z" fill="#99B88E"/></g><path d="M 336 336 A 168 168 0 0 1  504 168 L 336 336 A 168 168 0 0 0 504 168" fill="#161A1D"/><circle cx="588" cy="252" r="84" fill="#161A1D"/><rect x="672" y="0" width="336" height="336" fill="#161A1D"/><path d="M 672 168 A 168 168 0 0 1  840 0 L 672 168 A 168 168 0 0 0 840 0" fill="#161A1D"/><path d="M 840 168 A 168 168 0 0 1  1008 0 L 840 168 A 168 168 0 0 0 1008 0" fill="#161A1D"/><g transform="translate(672,168) scale(8.4) rotate(0)"><path fill-rule="evenodd" clip-rule="evenodd" d="M10 20C15.5228 20 20 15.5228 20 10C20 4.47715 15.5228 0 10 0C4.47715 0 0 4.47715 0 10C0 15.5228 4.47715 20 10 20ZM10 17C13.866 17 17 13.866 17 10C17 6.13401 13.866 3 10 3C6.13401 3 3 6.13401 3 10C3 13.866 6.13401 17 10 17Z" fill="#99B88E"/></g><g transform="translate(840,168) scale(8.4) rotate(0)"><path fill-rule="evenodd" clip-rule="evenodd" d="M10 20C15.5228 20 20 15.5228 20 10C20 4.47715 15.5228 0 10 0C4.47715 0 0 4.47715 0 10C0 15.5228 4.47715 20 10 20ZM10 17C13.866 17 17 13.866 17 10C17 6.13401 13.866 3 10 3C6.13401 3 3 6.13401 3 10C3 13.866 6.13401 17 10 17Z" fill="#161A1D"/></g><rect x="0" y="336" width="336" height="336" fill="#161A1D"/><g transform="translate(0,336) scale(8.4) rotate(0)"><path fill-rule="evenodd" clip-rule="evenodd" d="M10 20C15.5228 20 20 15.5228 20 10C20 4.47715 15.5228 0 10 0C4.47715 0 0 4.47715 0 10C0 15.5228 4.47715 20 10 20ZM10 17C13.866 17 17 13.866 17 10C17 6.13401 13.866 3 10 3C6.13401 3 3 6.13401 3 10C3 13.866 6.13401 17 10 17Z" fill="#161A1D"/></g><path d="M 168 504 A 168 168 0 0 1  336 336 L 168 504 A 168 168 0 0 0 336 336" fill="#99B88E"/><g transform="translate(0,504) scale(8.4) rotate(0)"><path fill-rule="evenodd" clip-rule="evenodd" d="M10 20C15.5228 20 20 15.5228 20 10C20 4.47715 15.5228 0 10 0C4.47715 0 0 4.47715 0 10C0 15.5228 4.47715 20 10 20ZM10 17C13.866 17 17 13.866 17 10C17 6.13401 13.866 3 10 3C6.13401 3 3 6.13401 3 10C3 13.866 6.13401 17 10 17Z" fill="#99B88E"/></g><path d="M 168 672 A 168 168 0 0 1  336 504 L 168 672 A 168 168 0 0 0 336 504" fill="#99B88E"/><circle cx="504" cy="504" r="168" fill="#99B88E"/><rect x="672" y="336" width="336" height="336" fill="#161A1D"/><circle cx="756" cy="420" r="84" fill="#99B88E"/><circle cx="924" cy="420" r="84" fill="#99B88E"/><g transform="translate(672,504) scale(8.4) rotate(0)"><path fill-rule="evenodd" clip-rule="evenodd" d="M10 20C15.5228 20 20 15.5228 20 10C20 4.47715 15.5228 0 10 0C4.47715 0 0 4.47715 0 10C0 15.5228 4.47715 20 10 20ZM10 17C13.866 17 17 13.866 17 10C17 6.13401 13.866 3 10 3C6.13401 3 3 6.13401 3 10C3 13.866 6.13401 17 10 17Z" fill="#99B88E"/></g><path d="M 840 504 A 168 168 0 0 1  1008 672 L 840 504 A 168 168 0 0 0 1008 672" fill="#99B88E"/></g></svg>